<svg width="219" height="219" viewBox="0 0 219 219" fill="none" xmlns="http://www.w3.org/2000/svg">
<path d="M141.29 176.613H148.355V204.871H141.29V176.613Z" fill="url(#paint0_linear)"/>
<path d="M155.419 176.613H162.484V204.871H155.419V176.613Z" fill="url(#paint1_linear)"/>
<path d="M190.742 123.594V49.4516H183.677V13.4897L176.613 14.6659V7.06452H169.548V15.8457L162.484 17.022V0H155.419V18.2017L148.355 19.378V7.06452H141.29V20.5542L134.226 21.7305V49.4516H127.161V84.7742H98.9032V35.3226H84.7742V14.129H77.7097V0H42.3871V14.129H35.3226V35.3226H21.1935V101.323C13.8747 104.816 8.54453 111.785 7.3471 120.097H0V219H219V119.556L190.742 123.594ZM141.29 27.7176L176.613 21.8294V49.4516H141.29V27.7176ZM134.226 56.5161H183.677V124.604L162.484 127.631V146.002L151.887 131.873L141.29 146.002V84.7742H134.226V56.5161ZM134.226 98.9032H84.7742V91.8387H134.226V98.9032ZM134.226 169.548H169.548V211.935H134.226V169.548ZM137.758 162.484L151.887 143.646L166.016 162.484H137.758ZM49.4516 7.06452H70.6452V14.129H49.4516V7.06452ZM42.3871 21.1935H77.7097V35.3226H42.3871V21.1935ZM28.2581 42.3871H91.8387V84.7742H77.7097V101.323C74.4918 99.7898 70.9065 98.9032 67.1129 98.9032H31.7903C30.5894 98.9032 29.4166 99.0198 28.2581 99.1858V42.3871ZM31.7903 105.968H67.1129C75.6398 105.968 82.7749 112.047 84.4174 120.097H14.4858C16.1283 112.047 23.2635 105.968 31.7903 105.968ZM91.8387 127.161V134.226H7.06452V127.161H91.8387ZM77.7097 190.742H63.5806V176.613H77.7097V190.742ZM56.5161 190.742H42.3871V176.613H56.5161V190.742ZM56.5161 197.806V211.935H42.3871V197.806H56.5161ZM63.5806 197.806H77.7097V211.935H63.5806V197.806ZM77.7097 169.548H63.5806V155.419H77.7097V169.548ZM56.5161 169.548H42.3871V155.419H56.5161V169.548ZM35.3226 169.548H21.1935V155.419H35.3226V169.548ZM21.1935 176.613H35.3226V190.742H21.1935V176.613ZM21.1935 197.806H35.3226V211.935H21.1935V197.806ZM84.7742 211.935V148.355H14.129V211.935H7.06452V141.29H91.8387V211.935H84.7742ZM91.5561 120.097C90.7932 114.791 88.3559 110.019 84.7742 106.36V105.968H134.226V155.419L127.161 164.84V211.935H98.9032V120.097H91.5561ZM211.935 211.935H176.613V164.84L169.548 155.419V133.756L211.935 127.702V211.935Z" fill="url(#paint2_linear)"/>
<path d="M105.968 113.032H113.032V120.097H105.968V113.032Z" fill="url(#paint3_linear)"/>
<path d="M105.968 197.806H113.032V204.871H105.968V197.806Z" fill="url(#paint4_linear)"/>
<path d="M105.968 127.161H113.032V134.226H105.968V127.161Z" fill="url(#paint5_linear)"/>
<path d="M105.968 183.677H113.032V190.742H105.968V183.677Z" fill="url(#paint6_linear)"/>
<path d="M105.968 155.419H113.032V162.484H105.968V155.419Z" fill="url(#paint7_linear)"/>
<path d="M105.968 141.29H113.032V148.355H105.968V141.29Z" fill="url(#paint8_linear)"/>
<path d="M105.968 169.548H113.032V176.613H105.968V169.548Z" fill="url(#paint9_linear)"/>
<path d="M120.097 141.29H127.161V148.355H120.097V141.29Z" fill="url(#paint10_linear)"/>
<path d="M120.097 127.161H127.161V134.226H120.097V127.161Z" fill="url(#paint11_linear)"/>
<path d="M120.097 113.032H127.161V120.097H120.097V113.032Z" fill="url(#paint12_linear)"/>
<path d="M197.806 197.806H204.871V204.871H197.806V197.806Z" fill="url(#paint13_linear)"/>
<path d="M197.806 169.548H204.871V176.613H197.806V169.548Z" fill="url(#paint14_linear)"/>
<path d="M197.806 183.677H204.871V190.742H197.806V183.677Z" fill="url(#paint15_linear)"/>
<path d="M197.806 155.419H204.871V162.484H197.806V155.419Z" fill="url(#paint16_linear)"/>
<path d="M197.806 141.29H204.871V148.355H197.806V141.29Z" fill="url(#paint17_linear)"/>
<path d="M183.677 183.677H190.742V190.742H183.677V183.677Z" fill="url(#paint18_linear)"/>
<path d="M183.677 141.29H190.742V148.355H183.677V141.29Z" fill="url(#paint19_linear)"/>
<path d="M183.677 169.548H190.742V176.613H183.677V169.548Z" fill="url(#paint20_linear)"/>
<path d="M183.677 197.806H190.742V204.871H183.677V197.806Z" fill="url(#paint21_linear)"/>
<path d="M183.677 155.419H190.742V162.484H183.677V155.419Z" fill="url(#paint22_linear)"/>
<path d="M77.7097 49.4516H84.7742V56.5161H77.7097V49.4516Z" fill="url(#paint23_linear)"/>
<path d="M63.5806 49.4516H70.6452V56.5161H63.5806V49.4516Z" fill="url(#paint24_linear)"/>
<path d="M35.3226 49.4516H42.3871V56.5161H35.3226V49.4516Z" fill="url(#paint25_linear)"/>
<path d="M49.4516 49.4516H56.5161V56.5161H49.4516V49.4516Z" fill="url(#paint26_linear)"/>
<path d="M49.4516 63.5806H56.5161V70.6452H49.4516V63.5806Z" fill="url(#paint27_linear)"/>
<path d="M77.7097 63.5806H84.7742V70.6452H77.7097V63.5806Z" fill="url(#paint28_linear)"/>
<path d="M35.3226 63.5806H42.3871V70.6452H35.3226V63.5806Z" fill="url(#paint29_linear)"/>
<path d="M63.5806 63.5806H70.6452V70.6452H63.5806V63.5806Z" fill="url(#paint30_linear)"/>
<path d="M35.3226 77.7097H42.3871V84.7742H35.3226V77.7097Z" fill="url(#paint31_linear)"/>
<path d="M49.4516 77.7097H56.5161V84.7742H49.4516V77.7097Z" fill="url(#paint32_linear)"/>
<path d="M63.5806 77.7097H70.6452V84.7742H63.5806V77.7097Z" fill="url(#paint33_linear)"/>
<path d="M169.548 63.5806H176.613V70.6452H169.548V63.5806Z" fill="url(#paint34_linear)"/>
<path d="M155.419 63.5806H162.484V70.6452H155.419V63.5806Z" fill="url(#paint35_linear)"/>
<path d="M141.29 63.5806H148.355V70.6452H141.29V63.5806Z" fill="url(#paint36_linear)"/>
<path d="M169.548 77.7097H176.613V84.7742H169.548V77.7097Z" fill="url(#paint37_linear)"/>
<path d="M141.29 77.7097H148.355V84.7742H141.29V77.7097Z" fill="url(#paint38_linear)"/>
<path d="M155.419 77.7097H162.484V84.7742H155.419V77.7097Z" fill="url(#paint39_linear)"/>
<path d="M155.419 120.097H162.484V127.161H155.419V120.097Z" fill="url(#paint40_linear)"/>
<path d="M155.419 105.968H162.484V113.032H155.419V105.968Z" fill="url(#paint41_linear)"/>
<path d="M155.419 91.8387H162.484V98.9032H155.419V91.8387Z" fill="url(#paint42_linear)"/>
<path d="M169.548 105.968H176.613V113.032H169.548V105.968Z" fill="url(#paint43_linear)"/>
<path d="M169.548 91.8387H176.613V98.9032H169.548V91.8387Z" fill="url(#paint44_linear)"/>
<defs>
<linearGradient id="paint0_linear" x1="33.7771" y1="31.7904" x2="219" y2="219" gradientUnits="userSpaceOnUse">
<stop stop-color="#2DD3AA"/>
<stop offset="1" stop-color="#3E2BCE"/>
</linearGradient>
<linearGradient id="paint1_linear" x1="33.7771" y1="31.7904" x2="219" y2="219" gradientUnits="userSpaceOnUse">
<stop stop-color="#2DD3AA"/>
<stop offset="1" stop-color="#3E2BCE"/>
</linearGradient>
<linearGradient id="paint2_linear" x1="33.7771" y1="31.7904" x2="219" y2="219" gradientUnits="userSpaceOnUse">
<stop stop-color="#2DD3AA"/>
<stop offset="1" stop-color="#3E2BCE"/>
</linearGradient>
<linearGradient id="paint3_linear" x1="33.7771" y1="31.7904" x2="219" y2="219" gradientUnits="userSpaceOnUse">
<stop stop-color="#2DD3AA"/>
<stop offset="1" stop-color="#3E2BCE"/>
</linearGradient>
<linearGradient id="paint4_linear" x1="33.7771" y1="31.7904" x2="219" y2="219" gradientUnits="userSpaceOnUse">
<stop stop-color="#2DD3AA"/>
<stop offset="1" stop-color="#3E2BCE"/>
</linearGradient>
<linearGradient id="paint5_linear" x1="33.7771" y1="31.7904" x2="219" y2="219" gradientUnits="userSpaceOnUse">
<stop stop-color="#2DD3AA"/>
<stop offset="1" stop-color="#3E2BCE"/>
</linearGradient>
<linearGradient id="paint6_linear" x1="33.7771" y1="31.7904" x2="219" y2="219" gradientUnits="userSpaceOnUse">
<stop stop-color="#2DD3AA"/>
<stop offset="1" stop-color="#3E2BCE"/>
</linearGradient>
<linearGradient id="paint7_linear" x1="33.7771" y1="31.7904" x2="219" y2="219" gradientUnits="userSpaceOnUse">
<stop stop-color="#2DD3AA"/>
<stop offset="1" stop-color="#3E2BCE"/>
</linearGradient>
<linearGradient id="paint8_linear" x1="33.7771" y1="31.7904" x2="219" y2="219" gradientUnits="userSpaceOnUse">
<stop stop-color="#2DD3AA"/>
<stop offset="1" stop-color="#3E2BCE"/>
</linearGradient>
<linearGradient id="paint9_linear" x1="33.7771" y1="31.7904" x2="219" y2="219" gradientUnits="userSpaceOnUse">
<stop stop-color="#2DD3AA"/>
<stop offset="1" stop-color="#3E2BCE"/>
</linearGradient>
<linearGradient id="paint10_linear" x1="33.7771" y1="31.7904" x2="219" y2="219" gradientUnits="userSpaceOnUse">
<stop stop-color="#2DD3AA"/>
<stop offset="1" stop-color="#3E2BCE"/>
</linearGradient>
<linearGradient id="paint11_linear" x1="33.7771" y1="31.7904" x2="219" y2="219" gradientUnits="userSpaceOnUse">
<stop stop-color="#2DD3AA"/>
<stop offset="1" stop-color="#3E2BCE"/>
</linearGradient>
<linearGradient id="paint12_linear" x1="33.7771" y1="31.7904" x2="219" y2="219" gradientUnits="userSpaceOnUse">
<stop stop-color="#2DD3AA"/>
<stop offset="1" stop-color="#3E2BCE"/>
</linearGradient>
<linearGradient id="paint13_linear" x1="33.7771" y1="31.7904" x2="219" y2="219" gradientUnits="userSpaceOnUse">
<stop stop-color="#2DD3AA"/>
<stop offset="1" stop-color="#3E2BCE"/>
</linearGradient>
<linearGradient id="paint14_linear" x1="33.7771" y1="31.7904" x2="219" y2="219" gradientUnits="userSpaceOnUse">
<stop stop-color="#2DD3AA"/>
<stop offset="1" stop-color="#3E2BCE"/>
</linearGradient>
<linearGradient id="paint15_linear" x1="33.7771" y1="31.7904" x2="219" y2="219" gradientUnits="userSpaceOnUse">
<stop stop-color="#2DD3AA"/>
<stop offset="1" stop-color="#3E2BCE"/>
</linearGradient>
<linearGradient id="paint16_linear" x1="33.7771" y1="31.7904" x2="219" y2="219" gradientUnits="userSpaceOnUse">
<stop stop-color="#2DD3AA"/>
<stop offset="1" stop-color="#3E2BCE"/>
</linearGradient>
<linearGradient id="paint17_linear" x1="33.7771" y1="31.7904" x2="219" y2="219" gradientUnits="userSpaceOnUse">
<stop stop-color="#2DD3AA"/>
<stop offset="1" stop-color="#3E2BCE"/>
</linearGradient>
<linearGradient id="paint18_linear" x1="33.7771" y1="31.7904" x2="219" y2="219" gradientUnits="userSpaceOnUse">
<stop stop-color="#2DD3AA"/>
<stop offset="1" stop-color="#3E2BCE"/>
</linearGradient>
<linearGradient id="paint19_linear" x1="33.7771" y1="31.7904" x2="219" y2="219" gradientUnits="userSpaceOnUse">
<stop stop-color="#2DD3AA"/>
<stop offset="1" stop-color="#3E2BCE"/>
</linearGradient>
<linearGradient id="paint20_linear" x1="33.7771" y1="31.7904" x2="219" y2="219" gradientUnits="userSpaceOnUse">
<stop stop-color="#2DD3AA"/>
<stop offset="1" stop-color="#3E2BCE"/>
</linearGradient>
<linearGradient id="paint21_linear" x1="33.7771" y1="31.7904" x2="219" y2="219" gradientUnits="userSpaceOnUse">
<stop stop-color="#2DD3AA"/>
<stop offset="1" stop-color="#3E2BCE"/>
</linearGradient>
<linearGradient id="paint22_linear" x1="33.7771" y1="31.7904" x2="219" y2="219" gradientUnits="userSpaceOnUse">
<stop stop-color="#2DD3AA"/>
<stop offset="1" stop-color="#3E2BCE"/>
</linearGradient>
<linearGradient id="paint23_linear" x1="33.7771" y1="31.7904" x2="219" y2="219" gradientUnits="userSpaceOnUse">
<stop stop-color="#2DD3AA"/>
<stop offset="1" stop-color="#3E2BCE"/>
</linearGradient>
<linearGradient id="paint24_linear" x1="33.7771" y1="31.7904" x2="219" y2="219" gradientUnits="userSpaceOnUse">
<stop stop-color="#2DD3AA"/>
<stop offset="1" stop-color="#3E2BCE"/>
</linearGradient>
<linearGradient id="paint25_linear" x1="33.7771" y1="31.7904" x2="219" y2="219" gradientUnits="userSpaceOnUse">
<stop stop-color="#2DD3AA"/>
<stop offset="1" stop-color="#3E2BCE"/>
</linearGradient>
<linearGradient id="paint26_linear" x1="33.7771" y1="31.7904" x2="219" y2="219" gradientUnits="userSpaceOnUse">
<stop stop-color="#2DD3AA"/>
<stop offset="1" stop-color="#3E2BCE"/>
</linearGradient>
<linearGradient id="paint27_linear" x1="33.7771" y1="31.7904" x2="219" y2="219" gradientUnits="userSpaceOnUse">
<stop stop-color="#2DD3AA"/>
<stop offset="1" stop-color="#3E2BCE"/>
</linearGradient>
<linearGradient id="paint28_linear" x1="33.7771" y1="31.7904" x2="219" y2="219" gradientUnits="userSpaceOnUse">
<stop stop-color="#2DD3AA"/>
<stop offset="1" stop-color="#3E2BCE"/>
</linearGradient>
<linearGradient id="paint29_linear" x1="33.7771" y1="31.7904" x2="219" y2="219" gradientUnits="userSpaceOnUse">
<stop stop-color="#2DD3AA"/>
<stop offset="1" stop-color="#3E2BCE"/>
</linearGradient>
<linearGradient id="paint30_linear" x1="33.7771" y1="31.7904" x2="219" y2="219" gradientUnits="userSpaceOnUse">
<stop stop-color="#2DD3AA"/>
<stop offset="1" stop-color="#3E2BCE"/>
</linearGradient>
<linearGradient id="paint31_linear" x1="33.7771" y1="31.7904" x2="219" y2="219" gradientUnits="userSpaceOnUse">
<stop stop-color="#2DD3AA"/>
<stop offset="1" stop-color="#3E2BCE"/>
</linearGradient>
<linearGradient id="paint32_linear" x1="33.7771" y1="31.7904" x2="219" y2="219" gradientUnits="userSpaceOnUse">
<stop stop-color="#2DD3AA"/>
<stop offset="1" stop-color="#3E2BCE"/>
</linearGradient>
<linearGradient id="paint33_linear" x1="33.7771" y1="31.7904" x2="219" y2="219" gradientUnits="userSpaceOnUse">
<stop stop-color="#2DD3AA"/>
<stop offset="1" stop-color="#3E2BCE"/>
</linearGradient>
<linearGradient id="paint34_linear" x1="33.7771" y1="31.7904" x2="219" y2="219" gradientUnits="userSpaceOnUse">
<stop stop-color="#2DD3AA"/>
<stop offset="1" stop-color="#3E2BCE"/>
</linearGradient>
<linearGradient id="paint35_linear" x1="33.7771" y1="31.7904" x2="219" y2="219" gradientUnits="userSpaceOnUse">
<stop stop-color="#2DD3AA"/>
<stop offset="1" stop-color="#3E2BCE"/>
</linearGradient>
<linearGradient id="paint36_linear" x1="33.7771" y1="31.7904" x2="219" y2="219" gradientUnits="userSpaceOnUse">
<stop stop-color="#2DD3AA"/>
<stop offset="1" stop-color="#3E2BCE"/>
</linearGradient>
<linearGradient id="paint37_linear" x1="33.7771" y1="31.7904" x2="219" y2="219" gradientUnits="userSpaceOnUse">
<stop stop-color="#2DD3AA"/>
<stop offset="1" stop-color="#3E2BCE"/>
</linearGradient>
<linearGradient id="paint38_linear" x1="33.7771" y1="31.7904" x2="219" y2="219" gradientUnits="userSpaceOnUse">
<stop stop-color="#2DD3AA"/>
<stop offset="1" stop-color="#3E2BCE"/>
</linearGradient>
<linearGradient id="paint39_linear" x1="33.7771" y1="31.7904" x2="219" y2="219" gradientUnits="userSpaceOnUse">
<stop stop-color="#2DD3AA"/>
<stop offset="1" stop-color="#3E2BCE"/>
</linearGradient>
<linearGradient id="paint40_linear" x1="33.7771" y1="31.7904" x2="219" y2="219" gradientUnits="userSpaceOnUse">
<stop stop-color="#2DD3AA"/>
<stop offset="1" stop-color="#3E2BCE"/>
</linearGradient>
<linearGradient id="paint41_linear" x1="33.7771" y1="31.7904" x2="219" y2="219" gradientUnits="userSpaceOnUse">
<stop stop-color="#2DD3AA"/>
<stop offset="1" stop-color="#3E2BCE"/>
</linearGradient>
<linearGradient id="paint42_linear" x1="33.7771" y1="31.7904" x2="219" y2="219" gradientUnits="userSpaceOnUse">
<stop stop-color="#2DD3AA"/>
<stop offset="1" stop-color="#3E2BCE"/>
</linearGradient>
<linearGradient id="paint43_linear" x1="33.7771" y1="31.7904" x2="219" y2="219" gradientUnits="userSpaceOnUse">
<stop stop-color="#2DD3AA"/>
<stop offset="1" stop-color="#3E2BCE"/>
</linearGradient>
<linearGradient id="paint44_linear" x1="33.7771" y1="31.7904" x2="219" y2="219" gradientUnits="userSpaceOnUse">
<stop stop-color="#2DD3AA"/>
<stop offset="1" stop-color="#3E2BCE"/>
</linearGradient>
</defs>
</svg>
