<svg width="219" height="219" viewBox="0 0 219 219" fill="none" xmlns="http://www.w3.org/2000/svg">
<path d="M215.468 0H3.53226C2.59544 0 1.697 0.372147 1.03457 1.03457C0.372147 1.697 0 2.59544 0 3.53226V215.468C0 216.405 0.372147 217.303 1.03457 217.965C1.697 218.628 2.59544 219 3.53226 219H215.468C216.405 219 217.303 218.628 217.965 217.965C218.628 217.303 219 216.405 219 215.468V3.53226C219 2.59544 218.628 1.697 217.965 1.03457C217.303 0.372147 216.405 0 215.468 0ZM211.935 7.06452V70.6452H7.06452V7.06452H211.935ZM7.06452 211.935V77.7097H211.935V211.935H7.06452Z" fill="url(#paint0_linear)"/>
<path d="M24.7258 21.1935H31.7903V56.5161H24.7258V21.1935Z" fill="url(#paint1_linear)"/>
<path d="M127.161 21.1935H134.226V56.5161H127.161V21.1935Z" fill="url(#paint2_linear)"/>
<path d="M45.9194 37.0534L57.046 54.7147C57.3467 55.25 57.7817 55.6977 58.3083 56.0136C58.8348 56.3295 59.4345 56.5027 60.0484 56.5161C60.3764 56.5625 60.7094 56.5625 61.0374 56.5161C61.7949 56.2959 62.4568 55.8284 62.9177 55.1883C63.3786 54.5481 63.612 53.7721 63.5806 52.9839V21.1935H56.5161V40.6563L45.3895 22.995C45.0238 22.2895 44.4309 21.728 43.7066 21.4011C42.9824 21.0742 42.169 21.0011 41.3981 21.1935C40.6406 21.4138 39.9787 21.8813 39.5178 22.5214C39.0568 23.1616 38.8235 23.9376 38.8548 24.7258V56.5161H45.9194V37.0534Z" fill="url(#paint3_linear)"/>
<path d="M78.3102 54.9266C78.6333 55.4074 79.0697 55.8014 79.581 56.0738C80.0922 56.3462 80.6626 56.4887 81.2419 56.4887C81.8212 56.4887 82.3917 56.3462 82.9029 56.0738C83.4142 55.8014 83.8506 55.4074 84.1737 54.9266L91.2382 44.3298C91.6245 43.7551 91.8333 43.0795 91.8387 42.3871V21.1935H84.7742V41.3274L81.2419 46.6258L77.7097 41.3274V21.1935H70.6452V42.3871C70.6506 43.0795 70.8594 43.7551 71.2456 44.3298L78.3102 54.9266Z" fill="url(#paint4_linear)"/>
<path d="M109.5 56.5161C112.31 56.5161 115.006 55.3997 116.993 53.4124C118.98 51.4251 120.097 48.7298 120.097 45.9194V31.7903C120.097 28.9799 118.98 26.2846 116.993 24.2973C115.006 22.31 112.31 21.1935 109.5 21.1935C106.69 21.1935 103.994 22.31 102.007 24.2973C100.02 26.2846 98.9032 28.9799 98.9032 31.7903V45.9194C98.9032 48.7298 100.02 51.4251 102.007 53.4124C103.994 55.3997 106.69 56.5161 109.5 56.5161ZM105.968 31.7903C105.968 30.8535 106.34 29.9551 107.002 29.2926C107.665 28.6302 108.563 28.2581 109.5 28.2581C110.437 28.2581 111.335 28.6302 111.998 29.2926C112.66 29.9551 113.032 30.8535 113.032 31.7903V45.9194C113.032 46.8562 112.66 47.7546 111.998 48.417C111.335 49.0795 110.437 49.4516 109.5 49.4516C108.563 49.4516 107.665 49.0795 107.002 48.417C106.34 47.7546 105.968 46.8562 105.968 45.9194V31.7903Z" fill="url(#paint5_linear)"/>
<path d="M151.887 56.5161H155.419C158.23 56.5161 160.925 55.3997 162.912 53.4124C164.9 51.4251 166.016 48.7298 166.016 45.9194H158.952C158.952 46.8562 158.579 47.7546 157.917 48.417C157.255 49.0795 156.356 49.4516 155.419 49.4516H151.887C150.95 49.4516 150.052 49.0795 149.389 48.417C148.727 47.7546 148.355 46.8562 148.355 45.9194V31.7903C148.355 30.8535 148.727 29.9551 149.389 29.2926C150.052 28.6302 150.95 28.2581 151.887 28.2581H155.419C156.356 28.2581 157.255 28.6302 157.917 29.2926C158.579 29.9551 158.952 30.8535 158.952 31.7903H166.016C166.016 28.9799 164.9 26.2846 162.912 24.2973C160.925 22.31 158.23 21.1935 155.419 21.1935H151.887C149.077 21.1935 146.381 22.31 144.394 24.2973C142.407 26.2846 141.29 28.9799 141.29 31.7903V45.9194C141.29 48.7298 142.407 51.4251 144.394 53.4124C146.381 55.3997 149.077 56.5161 151.887 56.5161Z" fill="url(#paint6_linear)"/>
<path d="M176.613 56.5161H194.274V49.4516H180.145V42.3871H194.274V35.3226H180.145V28.2581H194.274V21.1935H176.613C175.676 21.1935 174.778 21.5657 174.115 22.2281C173.453 22.8906 173.081 23.789 173.081 24.7258V52.9839C173.081 53.9207 173.453 54.8191 174.115 55.4816C174.778 56.144 175.676 56.5161 176.613 56.5161Z" fill="url(#paint7_linear)"/>
<path d="M201.339 91.8387H17.6613C16.7245 91.8387 15.826 92.2109 15.1636 92.8733C14.5012 93.5357 14.129 94.4342 14.129 95.371V201.339C14.129 202.276 14.5012 203.174 15.1636 203.836C15.826 204.499 16.7245 204.871 17.6613 204.871H201.339C202.276 204.871 203.174 204.499 203.836 203.836C204.499 203.174 204.871 202.276 204.871 201.339V95.371C204.871 94.4342 204.499 93.5357 203.836 92.8733C203.174 92.2109 202.276 91.8387 201.339 91.8387ZM197.806 113.032H113.032V98.9032H197.806V113.032ZM105.968 98.9032V113.032H21.1935V98.9032H105.968ZM21.1935 120.097H105.968V197.806H21.1935V120.097ZM113.032 197.806V120.097H197.806V197.806H113.032Z" fill="url(#paint8_linear)"/>
<path d="M155.419 141.29C157.293 141.29 159.09 142.035 160.415 143.359C161.74 144.684 162.484 146.481 162.484 148.355H169.548C169.538 145.23 168.493 142.197 166.575 139.73C164.658 137.263 161.977 135.501 158.952 134.72V127.161H151.887V134.72C148.597 135.613 145.741 137.666 143.845 140.5C141.949 143.334 141.142 146.757 141.573 150.139C142.003 153.521 143.642 156.633 146.186 158.902C148.731 161.171 152.01 162.443 155.419 162.484C156.817 162.484 158.182 162.898 159.344 163.674C160.506 164.451 161.411 165.554 161.946 166.845C162.481 168.136 162.621 169.556 162.348 170.927C162.076 172.297 161.403 173.556 160.415 174.544C159.427 175.532 158.168 176.205 156.798 176.477C155.427 176.75 154.007 176.61 152.716 176.075C151.425 175.54 150.322 174.635 149.545 173.473C148.769 172.311 148.355 170.946 148.355 169.548H141.29C141.3 172.673 142.346 175.706 144.263 178.173C146.181 180.64 148.862 182.402 151.887 183.183V190.742H158.952V183.183C162.242 182.29 165.098 180.237 166.994 177.403C168.889 174.57 169.696 171.146 169.266 167.764C168.836 164.382 167.197 161.27 164.652 159.001C162.108 156.732 158.828 155.46 155.419 155.419C153.546 155.419 151.749 154.675 150.424 153.35C149.099 152.025 148.355 150.228 148.355 148.355C148.355 146.481 149.099 144.684 150.424 143.359C151.749 142.035 153.546 141.29 155.419 141.29Z" fill="url(#paint9_linear)"/>
<path d="M28.2581 134.226H98.9032V141.29H28.2581V134.226Z" fill="url(#paint10_linear)"/>
<path d="M28.2581 155.419H98.9032V162.484H28.2581V155.419Z" fill="url(#paint11_linear)"/>
<path d="M28.2581 176.613H98.9032V183.677H28.2581V176.613Z" fill="url(#paint12_linear)"/>
<defs>
<linearGradient id="paint0_linear" x1="54.0877" y1="61.373" x2="210.832" y2="219" gradientUnits="userSpaceOnUse">
<stop stop-color="#2DD3AA"/>
<stop offset="1" stop-color="#3E2BCE"/>
</linearGradient>
<linearGradient id="paint1_linear" x1="54.0877" y1="61.373" x2="210.832" y2="219" gradientUnits="userSpaceOnUse">
<stop stop-color="#2DD3AA"/>
<stop offset="1" stop-color="#3E2BCE"/>
</linearGradient>
<linearGradient id="paint2_linear" x1="54.0877" y1="61.373" x2="210.832" y2="219" gradientUnits="userSpaceOnUse">
<stop stop-color="#2DD3AA"/>
<stop offset="1" stop-color="#3E2BCE"/>
</linearGradient>
<linearGradient id="paint3_linear" x1="54.0877" y1="61.373" x2="210.832" y2="219" gradientUnits="userSpaceOnUse">
<stop stop-color="#2DD3AA"/>
<stop offset="1" stop-color="#3E2BCE"/>
</linearGradient>
<linearGradient id="paint4_linear" x1="54.0877" y1="61.373" x2="210.832" y2="219" gradientUnits="userSpaceOnUse">
<stop stop-color="#2DD3AA"/>
<stop offset="1" stop-color="#3E2BCE"/>
</linearGradient>
<linearGradient id="paint5_linear" x1="54.0877" y1="61.373" x2="210.832" y2="219" gradientUnits="userSpaceOnUse">
<stop stop-color="#2DD3AA"/>
<stop offset="1" stop-color="#3E2BCE"/>
</linearGradient>
<linearGradient id="paint6_linear" x1="54.0877" y1="61.373" x2="210.832" y2="219" gradientUnits="userSpaceOnUse">
<stop stop-color="#2DD3AA"/>
<stop offset="1" stop-color="#3E2BCE"/>
</linearGradient>
<linearGradient id="paint7_linear" x1="54.0877" y1="61.373" x2="210.832" y2="219" gradientUnits="userSpaceOnUse">
<stop stop-color="#2DD3AA"/>
<stop offset="1" stop-color="#3E2BCE"/>
</linearGradient>
<linearGradient id="paint8_linear" x1="54.0877" y1="61.373" x2="210.832" y2="219" gradientUnits="userSpaceOnUse">
<stop stop-color="#2DD3AA"/>
<stop offset="1" stop-color="#3E2BCE"/>
</linearGradient>
<linearGradient id="paint9_linear" x1="54.0877" y1="61.373" x2="210.832" y2="219" gradientUnits="userSpaceOnUse">
<stop stop-color="#2DD3AA"/>
<stop offset="1" stop-color="#3E2BCE"/>
</linearGradient>
<linearGradient id="paint10_linear" x1="54.0877" y1="61.373" x2="210.832" y2="219" gradientUnits="userSpaceOnUse">
<stop stop-color="#2DD3AA"/>
<stop offset="1" stop-color="#3E2BCE"/>
</linearGradient>
<linearGradient id="paint11_linear" x1="54.0877" y1="61.373" x2="210.832" y2="219" gradientUnits="userSpaceOnUse">
<stop stop-color="#2DD3AA"/>
<stop offset="1" stop-color="#3E2BCE"/>
</linearGradient>
<linearGradient id="paint12_linear" x1="54.0877" y1="61.373" x2="210.832" y2="219" gradientUnits="userSpaceOnUse">
<stop stop-color="#2DD3AA"/>
<stop offset="1" stop-color="#3E2BCE"/>
</linearGradient>
</defs>
</svg>
