<svg width="212" height="205" viewBox="0 0 212 205" fill="none" xmlns="http://www.w3.org/2000/svg">
<path d="M201.4 0H10.6C7.78971 0.00327401 5.09546 1.12147 3.10828 3.10929C1.12111 5.09712 0.00327295 7.79224 0 10.6034V194.397C0.00327295 197.208 1.12111 199.903 3.10828 201.891C5.09546 203.879 7.78971 204.997 10.6 205H201.4C204.21 204.997 206.905 203.879 208.892 201.891C210.879 199.903 211.997 197.208 212 194.397V10.6034C211.997 7.79224 210.879 5.09712 208.892 3.10929C206.905 1.12147 204.21 0.00327401 201.4 0ZM10.6 7.06897H201.4C202.337 7.07002 203.235 7.44274 203.897 8.10535C204.56 8.76797 204.932 9.66637 204.933 10.6034V28.2759H7.06667V10.6034C7.06772 9.66637 7.44032 8.76797 8.10272 8.10535C8.76512 7.44274 9.66322 7.07002 10.6 7.06897ZM201.4 197.931H10.6C9.66322 197.93 8.76512 197.557 8.10272 196.895C7.44032 196.232 7.06772 195.334 7.06667 194.397V35.3448H204.933V194.397C204.932 195.334 204.56 196.232 203.897 196.895C203.235 197.557 202.337 197.93 201.4 197.931Z" fill="url(#paint0_linear)"/>
<path d="M45.9333 21.2069C47.8847 21.2069 49.4667 19.6245 49.4667 17.6724C49.4667 15.7204 47.8847 14.1379 45.9333 14.1379C43.9819 14.1379 42.4 15.7204 42.4 17.6724C42.4 19.6245 43.9819 21.2069 45.9333 21.2069Z" fill="url(#paint1_linear)"/>
<path d="M31.8 21.2069C33.7514 21.2069 35.3333 19.6245 35.3333 17.6724C35.3333 15.7204 33.7514 14.1379 31.8 14.1379C29.8486 14.1379 28.2667 15.7204 28.2667 17.6724C28.2667 19.6245 29.8486 21.2069 31.8 21.2069Z" fill="url(#paint2_linear)"/>
<path d="M17.6667 21.2069C19.6181 21.2069 21.2 19.6245 21.2 17.6724C21.2 15.7204 19.6181 14.1379 17.6667 14.1379C15.7153 14.1379 14.1333 15.7204 14.1333 17.6724C14.1333 19.6245 15.7153 21.2069 17.6667 21.2069Z" fill="url(#paint3_linear)"/>
<path d="M148.4 134.31H63.6C62.6629 134.31 61.7642 134.683 61.1016 135.346C60.4389 136.008 60.0667 136.907 60.0667 137.845V151.983C60.0667 152.92 60.4389 153.819 61.1016 154.482C61.7642 155.145 62.6629 155.517 63.6 155.517H148.4C149.337 155.517 150.236 155.145 150.898 154.482C151.561 153.819 151.933 152.92 151.933 151.983V137.845C151.933 136.907 151.561 136.008 150.898 135.346C150.236 134.683 149.337 134.31 148.4 134.31ZM67.1333 141.379H74.2V148.448H67.1333V141.379ZM144.867 148.448H81.2667V141.379H144.867V148.448Z" fill="url(#paint4_linear)"/>
<path d="M148.4 162.586H63.6C62.6629 162.586 61.7642 162.959 61.1016 163.621C60.4389 164.284 60.0667 165.183 60.0667 166.121V180.259C60.0667 181.196 60.4389 182.095 61.1016 182.758C61.7642 183.421 62.6629 183.793 63.6 183.793H148.4C149.337 183.793 150.236 183.421 150.898 182.758C151.561 182.095 151.933 181.196 151.933 180.259V166.121C151.933 165.183 151.561 164.284 150.898 163.621C150.236 162.959 149.337 162.586 148.4 162.586ZM67.1333 169.655H74.2V176.724H67.1333V169.655ZM144.867 176.724H81.2667V169.655H144.867V176.724Z" fill="url(#paint5_linear)"/>
<path d="M106 127.241C114.884 127.243 123.5 124.201 130.414 118.621C137.328 113.042 142.124 105.262 144.002 96.576C145.88 87.8904 144.727 78.8233 140.736 70.8842C136.745 62.9451 130.156 56.613 122.066 52.9419C113.976 49.2708 104.873 48.4823 96.272 50.7076C87.6715 52.9329 80.0924 58.0378 74.7963 65.1725C69.5003 72.3071 66.8068 81.041 67.1644 89.9203C67.522 98.7996 70.909 107.288 76.7617 113.974C80.4091 118.141 84.9046 121.481 89.9472 123.769C94.9897 126.057 100.463 127.241 106 127.241ZM83.4193 110.748C87.3828 99.3945 96.2626 91.8966 106 91.8966C115.737 91.8966 124.618 99.395 128.58 110.748C125.626 113.734 122.109 116.104 118.233 117.722C114.357 119.339 110.199 120.172 106 120.172C101.8 120.172 97.6421 119.339 93.7663 117.722C89.8904 116.104 86.3737 113.734 83.4193 110.748ZM98.9333 77.7586C98.9333 76.3605 99.3478 74.9938 100.124 73.8313C100.901 72.6688 102.004 71.7628 103.296 71.2278C104.587 70.6927 106.008 70.5527 107.379 70.8255C108.749 71.0982 110.009 71.7715 110.997 72.7601C111.985 73.7487 112.658 75.0083 112.931 76.3795C113.204 77.7508 113.064 79.1721 112.529 80.4638C111.994 81.7555 111.088 82.8595 109.926 83.6363C108.764 84.413 107.398 84.8276 106 84.8276C104.126 84.8254 102.33 84.0799 101.006 82.7547C99.6808 81.4295 98.9355 79.6328 98.9333 77.7586ZM106 56.5517C111.581 56.5497 117.063 58.0173 121.897 60.807C126.731 63.5967 130.745 67.6101 133.537 72.444C136.329 77.2778 137.799 82.7615 137.8 88.3439C137.801 93.9264 136.333 99.4107 133.543 104.246C129.74 96.2104 123.702 90.1404 116.623 87.0685C118.415 85.0257 119.581 82.5095 119.981 79.8211C120.38 77.1327 119.996 74.386 118.876 71.9101C117.755 69.4342 115.944 67.3339 113.661 65.8608C111.377 64.3877 108.718 63.6043 106.001 63.6043C103.284 63.6043 100.624 64.3877 98.3409 65.8608C96.0575 67.3339 94.2469 69.4342 93.1261 71.9101C92.0053 74.386 91.6216 77.1327 92.0212 79.8211C92.4207 82.5095 93.5864 85.0257 95.3788 87.0685C88.2998 90.1404 82.2613 96.2104 78.4585 104.246C75.669 99.4108 74.2009 93.9267 74.2019 88.3444C74.2029 82.7621 75.673 77.2785 78.4643 72.4447C81.2556 67.611 85.2698 63.5974 90.1034 60.8076C94.9369 58.0178 100.42 56.55 106 56.5517Z" fill="url(#paint6_linear)"/>
<defs>
<linearGradient id="paint0_linear" x1="25.175" y1="12.5916" x2="186.662" y2="191.252" gradientUnits="userSpaceOnUse">
<stop stop-color="#2DD3AA"/>
<stop offset="1" stop-color="#3E2BCE"/>
</linearGradient>
<linearGradient id="paint1_linear" x1="25.175" y1="12.5916" x2="186.662" y2="191.252" gradientUnits="userSpaceOnUse">
<stop stop-color="#2DD3AA"/>
<stop offset="1" stop-color="#3E2BCE"/>
</linearGradient>
<linearGradient id="paint2_linear" x1="25.175" y1="12.5916" x2="186.662" y2="191.252" gradientUnits="userSpaceOnUse">
<stop stop-color="#2DD3AA"/>
<stop offset="1" stop-color="#3E2BCE"/>
</linearGradient>
<linearGradient id="paint3_linear" x1="25.175" y1="12.5916" x2="186.662" y2="191.252" gradientUnits="userSpaceOnUse">
<stop stop-color="#2DD3AA"/>
<stop offset="1" stop-color="#3E2BCE"/>
</linearGradient>
<linearGradient id="paint4_linear" x1="25.175" y1="12.5916" x2="186.662" y2="191.252" gradientUnits="userSpaceOnUse">
<stop stop-color="#2DD3AA"/>
<stop offset="1" stop-color="#3E2BCE"/>
</linearGradient>
<linearGradient id="paint5_linear" x1="25.175" y1="12.5916" x2="186.662" y2="191.252" gradientUnits="userSpaceOnUse">
<stop stop-color="#2DD3AA"/>
<stop offset="1" stop-color="#3E2BCE"/>
</linearGradient>
<linearGradient id="paint6_linear" x1="25.175" y1="12.5916" x2="186.662" y2="191.252" gradientUnits="userSpaceOnUse">
<stop stop-color="#2DD3AA"/>
<stop offset="1" stop-color="#3E2BCE"/>
</linearGradient>
</defs>
</svg>
